<?xml version="1.0" standalone="no"?>
<!DOCTYPE svg PUBLIC "-//W3C//DTD SVG 20010904//EN"
 "http://www.w3.org/TR/2001/REC-SVG-20010904/DTD/svg10.dtd">
<svg version="1.0" xmlns="http://www.w3.org/2000/svg"
 width="488.000000pt" height="488.000000pt" viewBox="0 0 488.000000 488.000000"
 preserveAspectRatio="xMidYMid meet">
<metadata>
Created by potrace 1.14, written by Peter Selinger 2001-2017
</metadata>
<g transform="translate(0.000000,488.000000) scale(0.100000,-0.100000)"
fill="#000000" stroke="none">
<path d="M2427 4714 c-1 -1 -63 -4 -137 -8 -74 -3 -146 -8 -160 -11 -14 -3
-47 -7 -75 -11 -255 -28 -738 -194 -970 -332 -282 -167 -523 -398 -710 -677
-134 -202 -263 -500 -315 -734 -48 -218 -68 -491 -49 -681 10 -106 19 -183 24
-200 2 -8 7 -30 10 -47 37 -222 161 -539 294 -753 113 -183 313 -413 456 -526
27 -21 59 -47 70 -57 50 -47 243 -164 370 -227 159 -77 436 -176 573 -205 9
-2 58 -12 107 -23 85 -19 115 -24 228 -37 26 -3 66 -7 90 -10 97 -11 467 -4
517 10 8 2 40 7 70 10 128 14 361 74 525 135 96 35 311 136 370 173 240 150
361 242 507 389 282 283 490 640 582 1003 14 55 27 111 30 125 11 68 16 98 21
125 28 165 23 474 -10 658 -3 15 -7 38 -9 52 -3 14 -17 71 -31 127 -202 784
-865 1425 -1698 1643 -135 35 -148 38 -252 55 -117 19 -416 42 -428 34z"/>
</g>
</svg>
