<?xml version="1.0" encoding="utf-8"?>
<!-- Generator: Adobe Illustrator 25.3.0, SVG Export Plug-In . SVG Version: 6.00 Build 0)  -->
<svg version="1.1" id="Layer_1" xmlns="http://www.w3.org/2000/svg" xmlns:xlink="http://www.w3.org/1999/xlink" x="0px" y="0px"
	 viewBox="0 0 512 512" style="enable-background:new 0 0 512 512;" xml:space="preserve">
<style type="text/css">
	.st0{fill:#FFFFFF;}
</style>
<g>
	<path class="st0" d="M5.4,256.7c0,138.6,112.3,251.2,250.7,251.3c138.7,0.1,251.5-112.2,251.6-250.4C507.8,118.5,395.6,5.9,257,5.8
		C118,5.7,5.4,118,5.4,256.7z"/>
	<path d="M5.4,256.7C5.4,118,118,5.7,257,5.8c138.7,0.1,250.8,112.7,250.7,251.8C507.6,395.8,394.8,508.1,256.1,508
		C117.7,507.9,5.3,395.4,5.4,256.7z M474.2,256.8c0-120-97.1-217.1-217.4-217.5c-120-0.4-217.9,97.3-217.9,217.5
		C38.8,377,136.4,474.5,256.6,474.5C376.9,474.5,474.2,377.1,474.2,256.8z"/>
	<path d="M236.6,134c0-5.8-0.1-11.4,0-17c0.2-11.1,9-19.7,19.9-19.7c10.9,0,19.6,8.5,19.8,19.7c0.1,5.6,0,11.2,0,16.5
		c7.7,2.7,15.1,4.6,22,7.7c24.4,10.7,38.4,31.7,37.8,56.4c-0.2,10.1-8,18.5-17.6,19.3c-10.8,0.9-21.4-5.8-21.8-15.9
		c-0.7-17.3-11.4-23.8-25.9-27.1c-13.7-3.2-27.2-2.3-40.1,3.9c-16.8,8.1-20.2,30.8-5.5,42.3c8.1,6.3,18.4,10.2,28,14.4
		c11.3,4.7,23.1,8,34.4,12.6c24.4,10.1,41.7,27.1,46.9,53.9c6.8,34.8-8.6,61.7-42.2,74.3c-5.4,1.9-12.6,2.3-15.4,6.2
		c-2.7,3.6-0.6,10.8-0.9,16.4c-0.6,15.1-17.1,24-30,16.2c-6.3-3.8-9.7-9.5-9.9-17c-0.1-5.6,1.6-12.4-1-16.4
		c-2.3-3.5-9.6-3.5-14.6-5.4c-27.9-10-44.4-31.9-44.2-58.4c0.1-11.4,8.3-20.1,19.2-20.4c11.2-0.4,19.8,7.4,20.7,18.7
		c1,12.6,7.5,19.9,21.7,23.8c14.7,4.1,29.2,3.8,43.2-2.6c17.4-7.8,21-30.7,6.3-42.7c-7.2-5.8-16.3-9.7-25.1-13.4
		c-15.3-6.4-31.5-10.8-46.2-18.1c-31.5-15.7-46.7-50.4-37.3-82.6c6.7-22.9,23.7-35.2,45.2-42.4C228.2,136.1,232.1,135.2,236.6,134z"
		/>
</g>
</svg>
