<?xml version="1.0" encoding="utf-8"?>
<!-- Generator: Adobe Illustrator 25.3.0, SVG Export Plug-In . SVG Version: 6.00 Build 0)  -->
<svg version="1.1" id="Layer_1" xmlns="http://www.w3.org/2000/svg" xmlns:xlink="http://www.w3.org/1999/xlink" x="0px" y="0px"
	 viewBox="0 0 512 512" style="enable-background:new 0 0 512 512;" xml:space="preserve">
<style type="text/css">
	.st0{fill:#FFFFFF;}
</style>
<path d="M256,506.4c-16.3,0-32.5,0.3-48.8-0.1c-13.3-0.3-25-12.1-26.7-25.3c-2.2-16.4-4.6-32.7-7-49.1c-0.2-1.1-1.2-2.4-2.2-3
	c-7.3-4.4-14.7-8.6-21.9-13c-1.5-0.9-2.7-1-4.3-0.3c-14.6,6-29.4,11.7-44,17.9c-15.2,6.5-31.6,1.1-39.7-13.4
	c-14.5-26-29.7-51.7-44.6-77.4c-6.7-11.5-6.6-22.9,1.4-33.3c4-5.1,9.7-9,14.9-13.1c9.8-7.9,19.7-15.6,29.7-23.4
	c1.4-1.1,1.8-2.2,1.8-4c-0.1-8.4-0.1-16.8,0-25.3c0-2.1-0.7-3.3-2.2-4.4c-12.8-10-25.6-20-38.4-30c-12.1-9.5-15.5-24.3-7.9-37.7
	c15.3-27,30.9-54,46.6-80.8c7.9-13.4,22.6-18,37.1-12.2c15,6,29.9,12,44.8,18.1c2,0.8,3.5,0.8,5.4-0.4c7-4.3,14.2-8.3,21.2-12.5
	c1-0.6,2-1.9,2.2-3c2.1-13.7,3.9-27.4,5.9-41.2c1-6.8,1.3-13.8,5.2-19.9c6.1-9.4,14.7-14.2,25.9-14.2c30.4,0,60.7-0.1,91.1,0
	c17.5,0.1,28.7,11.2,30.8,29.4c1.8,15.1,4.2,30.2,6.4,45.3c0.2,1.1,1.2,2.4,2.2,3c7.4,4.5,14.8,8.7,22.2,13.2
	c1.5,0.9,2.6,0.7,4.1,0.1c15-6.1,30-12.2,45.1-18.2c12-4.8,24.9-2.4,33.1,6.4c1.9,2,3.5,4.3,4.9,6.7c15.2,26.2,30.4,52.4,45.5,78.7
	c6.7,11.7,6,24.5-2.5,34c-4.1,4.5-9.2,8.1-14,11.9c-9.9,7.9-19.9,15.7-29.8,23.6c-0.9,0.7-1.6,2.2-1.6,3.4c-0.1,8.7-0.2,17.4,0,26.2
	c0,1.3,1.1,2.9,2.1,3.7c12.9,10.3,25.9,20.3,38.8,30.6c11.4,9,14.9,23.5,8,36.2c-8.5,15.7-17.6,31-26.5,46.4
	c-6.5,11.2-13.1,22.4-19.4,33.7c-5.5,9.7-13.4,15.7-24.6,16.1c-4.6,0.2-9.5-0.8-13.9-2.4c-15.1-5.7-30-11.9-44.9-18
	c-2-0.8-3.4-0.6-5.2,0.5c-6.9,4.2-14,8.3-21,12.3c-1.5,0.8-2.4,1.6-2.6,3.5c-1.8,13.6-3.7,27.3-5.8,40.9c-0.8,5.3-1.2,10.8-3.2,15.6
	c-5.1,12.4-15,18.5-28.4,18.5c-15.1,0.1-30.2,0-45.2,0C256,506.6,256,506.5,256,506.4z M463.6,327.9c-0.6-0.5-1-0.9-1.5-1.3
	c-14.6-11.5-29.3-23-43.9-34.6c-4.9-3.9-6.9-9.1-6.2-15.2c1.2-11.3,1.7-22.5,0.9-33.8c-0.8-11.1,3.2-20.7,11.7-28
	c8.2-7,16.9-13.5,25.3-20.2c4.5-3.6,9.1-7.2,13.7-10.9c-14-24.1-27.7-47.9-41.6-71.9c-1.2,0.5-2.2,0.9-3.2,1.2
	c-13.3,5.3-26.6,10.7-39.9,16c-10.8,4.3-21.3,4-31.4-1.7c-9-5.1-17.9-10.2-26.6-15.6c-8.5-5.2-14.2-12.7-15.9-22.7
	c-2.1-12.2-3.6-24.5-5.4-36.7c-0.6-4.1-1.2-8.1-1.8-12.1c-28,0-55.6,0-83.2,0c-0.2,1-0.5,1.8-0.6,2.7c-2,14.5-4,29-6.1,43.5
	c-1.7,11.7-7.5,20.6-17.9,26.5c-8.1,4.5-16.1,9.4-24.1,14.1c-9,5.3-18.5,7.1-28.5,3.6c-8.7-3-17.2-6.6-25.7-10
	c-7.1-2.8-14.2-5.7-21.4-8.6c-14,24.1-27.8,48-41.6,71.9c0.7,0.6,1.1,1,1.6,1.3c11.7,9.2,23.4,18.3,35.1,27.6
	c10.4,8.3,14.8,19,13.9,32.4c-0.5,7.4-0.3,14.9,0.1,22.3c0.6,11.3-2.5,21.3-11.1,28.8c-7.4,6.5-15.3,12.3-22.9,18.4
	c-5.5,4.4-11,8.7-16.6,13.1c14,24.1,27.8,48,41.6,71.9c1.3-0.5,2.2-0.8,3.1-1.2c13.3-5.3,26.6-10.7,39.9-16
	c10.8-4.4,21.4-4.2,31.7,1.7c8.7,5,17.3,10,25.9,15.1c8.8,5.2,14.6,12.8,16.4,22.9c2,10.8,3.3,21.7,4.8,32.6
	c0.8,5.5,1.6,10.9,2.3,16.3c28,0,55.6,0,83.3,0c0.2-1.1,0.5-1.9,0.6-2.8c2-14.3,4.1-28.6,6-42.9c1.6-11.9,7.5-20.8,17.9-26.8
	c8.3-4.8,16.5-9.8,24.8-14.6c7-4.1,14.6-6,22.5-4.3c5.9,1.3,11.7,3.5,17.4,5.7c11.7,4.5,23.3,9.3,35.1,14
	C435.9,375.8,449.7,351.9,463.6,327.9z"/>
<path class="st0" d="M463.6,327.9c-13.9,24-27.7,47.9-41.5,71.9c-11.8-4.7-23.4-9.5-35.1-14c-5.7-2.2-11.5-4.4-17.4-5.7
	c-7.9-1.7-15.5,0.2-22.5,4.3c-8.3,4.8-16.5,9.8-24.8,14.6c-10.4,6-16.3,14.9-17.9,26.8c-1.9,14.3-4,28.6-6,42.9
	c-0.1,0.9-0.4,1.7-0.6,2.8c-27.6,0-55.3,0-83.3,0c-0.8-5.4-1.6-10.9-2.3-16.3c-1.6-10.9-2.9-21.8-4.8-32.6
	c-1.8-10.1-7.6-17.7-16.4-22.9c-8.6-5.1-17.2-10.2-25.9-15.1c-10.3-5.9-20.9-6.1-31.7-1.7c-13.3,5.3-26.6,10.7-39.9,16
	c-0.9,0.4-1.8,0.7-3.1,1.2c-13.8-23.9-27.7-47.8-41.6-71.9c5.6-4.4,11.1-8.8,16.6-13.1c7.7-6.1,15.6-12,22.9-18.4
	c8.6-7.6,11.7-17.5,11.1-28.8c-0.4-7.4-0.6-14.9-0.1-22.3c0.9-13.3-3.5-24.1-13.9-32.4c-11.7-9.2-23.4-18.4-35.1-27.6
	c-0.5-0.4-0.9-0.7-1.6-1.3c13.8-23.9,27.6-47.8,41.6-71.9c7.2,2.9,14.3,5.7,21.4,8.6c8.5,3.4,17,7,25.7,10c10,3.5,19.5,1.7,28.5-3.6
	c8-4.7,16-9.5,24.1-14.1c10.5-5.9,16.2-14.8,17.9-26.5c2.1-14.5,4.1-29,6.1-43.5c0.1-0.9,0.4-1.7,0.6-2.7c27.6,0,55.2,0,83.2,0
	c0.6,4,1.2,8.1,1.8,12.1c1.8,12.2,3.3,24.5,5.4,36.7c1.7,9.9,7.3,17.4,15.9,22.7c8.8,5.4,17.7,10.5,26.6,15.6
	c10.1,5.7,20.7,6.1,31.4,1.7c13.3-5.4,26.6-10.7,39.9-16c1-0.4,2-0.8,3.2-1.2c13.9,24,27.6,47.8,41.6,71.9
	c-4.6,3.7-9.2,7.2-13.7,10.9c-8.5,6.7-17.1,13.2-25.3,20.2c-8.5,7.3-12.5,16.9-11.7,28c0.8,11.3,0.3,22.6-0.9,33.8
	c-0.7,6.1,1.3,11.4,6.2,15.2c14.6,11.6,29.3,23.1,43.9,34.6C462.6,327,463,327.4,463.6,327.9z M343.2,256
	c-0.1-48.1-39.3-87.3-87.2-87.2c-47.7,0.1-86.9,39.4-87,86.8c-0.1,47.3,37.5,87.2,87.1,87.5C304.1,343.5,343.3,304,343.2,256z"/>
<path d="M343.2,256c0.1,48-39.1,87.5-87.1,87.2c-49.6-0.4-87.2-40.2-87.1-87.5c0.1-47.4,39.3-86.7,87-86.8
	C303.9,168.7,343.1,207.9,343.2,256z M256,308.2c28.6,0.3,52.4-23,52.5-51.9c0.1-30.1-25.1-52.7-51.5-52.6
	c-29.1,0.1-53.1,23-53.1,51.6C203.8,287.8,230.5,308.7,256,308.2z"/>
</svg>
